<svg width="657.9px" height="122px" xmlns="http://www.w3.org/2000/svg" viewBox="-78.94687499999998 14 657.89375 122" style="background: rgba(0, 0, 0, 0)" preserveAspectRatio="xMidYMid"><defs><linearGradient id="editing-gradient-gradient" x1="0" x2="1" y1="0.5" y2="0.5" gradientUnits="objectBoundingBox"><stop offset="0" stop-color="#ff00ff"></stop><stop offset="1" stop-color="#00ffff"></stop></linearGradient></defs><g><g transform="matrix(1.4,0,0,1.6,-72.8,195.3)"><path d="M 14.5 -52.3 L 0.6 -52.3 L 8.7 -94.5 L 22.8 -94.5 L 14.5 -52.3 Z M 70.3 -51 L 70.3 -51 L 70.3 -51 Q 62.5 -51 62.5 -57 L 62.5 -57 L 62.5 -57 Q 62.5 -59.7 63.6 -64.7 L 63.6 -64.7 L 63.6 -64.7 Q 64.8 -69.8 65.1 -71.9 L 65.1 -71.9 L 65.1 -71.9 Q 66 -76.6 66 -78 L 66 -78 L 66 -78 Q 66 -81.3 63.6 -81.3 L 63.6 -81.3 L 63.6 -81.3 Q 62 -81.3 60.5 -79.1 L 60.5 -79.1 L 60.5 -79.1 Q 58.9 -76.9 58.2 -72.5 L 58.2 -72.5 L 54.3 -52.3 L 41.8 -51 L 45.2 -68.4 L 45.2 -68.4 Q 45.8 -71.3 46.3 -74.6 L 46.3 -74.6 L 46.3 -74.6 Q 46.8 -77.8 46.8 -78.3 L 46.8 -78.3 L 46.8 -78.3 Q 46.8 -81.3 44.7 -81.3 L 44.7 -81.3 L 44.7 -81.3 Q 43.2 -81.3 41.6 -79.1 L 41.6 -79.1 L 41.6 -79.1 Q 40 -76.9 39.1 -72.5 L 39.1 -72.5 L 35.2 -52.3 L 22.6 -51 L 29.3 -84.9 L 39.7 -86.2 L 38.6 -79.8 L 38.6 -79.8 Q 40.3 -83.2 43.4 -84.7 L 43.4 -84.7 L 43.4 -84.7 Q 46.5 -86.2 51.3 -86.2 L 51.3 -86.2 L 51.3 -86.2 Q 54 -86.2 55.8 -84.9 L 55.8 -84.9 L 55.8 -84.9 Q 57.6 -83.5 58.2 -81.4 L 58.2 -81.4 L 58.2 -81.4 Q 59.3 -83.6 62 -84.9 L 62 -84.9 L 62 -84.9 Q 64.8 -86.2 68.2 -86.2 L 68.2 -86.2 L 68.2 -86.2 Q 71.7 -86.2 73.4 -85.5 L 73.4 -85.5 L 73.4 -85.5 Q 75.1 -84.7 76.1 -83.5 L 76.1 -83.5 L 76.1 -83.5 Q 77.8 -81.3 77.8 -77.2 L 77.8 -77.2 L 77.8 -77.2 Q 77.8 -73.2 76.1 -64.8 L 76.1 -64.8 L 76.1 -64.8 Q 75.2 -60.7 75.2 -59.2 L 75.2 -59.2 L 75.2 -59.2 Q 75.2 -57.7 76.1 -56.8 L 76.1 -56.8 L 76.1 -56.8 Q 76.9 -55.9 78.2 -55.8 L 78.2 -55.8 L 78.2 -55.8 Q 77.6 -53.6 75.4 -52.3 L 75.4 -52.3 L 75.4 -52.3 Q 73.1 -51 70.3 -51 Z M 85.9 -54.2 L 85.9 -54.2 L 85.9 -54.2 Q 84.4 -55.9 83.7 -58.5 L 83.7 -58.5 L 83.7 -58.5 Q 83.1 -61.1 83.1 -65.4 L 83.1 -65.4 L 83.1 -65.4 Q 83.1 -69.7 84.5 -73.6 L 84.5 -73.6 L 84.5 -73.6 Q 86 -77.5 88.7 -80.3 L 88.7 -80.3 L 88.7 -80.3 Q 94.2 -86.2 103.3 -86.2 L 103.3 -86.2 L 103.3 -86.2 Q 106.6 -86.2 108.9 -85.1 L 108.9 -85.1 L 119.9 -86.2 L 115.1 -61.3 L 115.1 -61.3 Q 114.9 -60.5 114.9 -59.1 L 114.9 -59.1 L 114.9 -59.1 Q 114.9 -57.7 115.8 -56.8 L 115.8 -56.8 L 115.8 -56.8 Q 116.7 -55.9 117.9 -55.8 L 117.9 -55.8 L 117.9 -55.8 Q 117.3 -53.6 115 -52.3 L 115 -52.3 L 115 -52.3 Q 112.6 -51 110 -51 L 110 -51 L 110 -51 Q 107.4 -51 105.6 -52 L 105.6 -52 L 105.6 -52 Q 103.9 -53 103.4 -54.7 L 103.4 -54.7 L 103.4 -54.7 Q 102.3 -53.1 100.2 -52 L 100.2 -52 L 100.2 -52 Q 98 -51 95.1 -51 L 95.1 -51 L 95.1 -51 Q 92.2 -51 89.8 -51.8 L 89.8 -51.8 L 89.8 -51.8 Q 87.4 -52.6 85.9 -54.2 Z M 99.4 -80.2 L 99.4 -80.2 L 99.4 -80.2 Q 98.7 -79 98 -77.1 L 98 -77.1 L 98 -77.1 Q 97.4 -75.1 96.3 -69.9 L 96.3 -69.9 L 96.3 -69.9 Q 95.3 -64.7 95.3 -61 L 95.3 -61 L 95.3 -61 Q 95.3 -57.3 95.9 -56.2 L 95.9 -56.2 L 95.9 -56.2 Q 96.4 -55.1 97.5 -55.1 L 97.5 -55.1 L 97.5 -55.1 Q 99.5 -55.1 101 -57.1 L 101 -57.1 L 101 -57.1 Q 102.5 -59 103.1 -62.5 L 103.1 -62.5 L 106.5 -81.2 L 106.5 -81.2 Q 105.1 -82.4 103.6 -82.4 L 103.6 -82.4 L 103.6 -82.4 Q 102 -82.4 101.1 -81.9 L 101.1 -81.9 L 101.1 -81.9 Q 100.2 -81.4 99.4 -80.2 Z M 127.6 -79 L 127.6 -79 L 127.6 -79 Q 129.8 -82.1 133.1 -84.2 L 133.1 -84.2 L 133.1 -84.2 Q 136.4 -86.2 140.4 -86.2 L 140.4 -86.2 L 140.4 -86.2 Q 144.4 -86.2 146.4 -84.9 L 146.4 -84.9 L 158.9 -86.2 L 154.6 -61.6 L 154.6 -61.6 Q 152.3 -49.1 147.6 -44.2 L 147.6 -44.2 L 147.6 -44.2 Q 143 -39.5 134.2 -39.5 L 134.2 -39.5 L 134.2 -39.5 Q 127.5 -39.5 123.6 -41.6 L 123.6 -41.6 L 123.6 -41.6 Q 119.8 -43.7 119.8 -47.2 L 119.8 -47.2 L 119.8 -47.2 Q 119.8 -49.9 121.8 -51.4 L 121.8 -51.4 L 121.8 -51.4 Q 123.8 -52.9 126.8 -52.9 L 126.8 -52.9 L 126.8 -52.9 Q 129.5 -52.9 131.6 -51.7 L 131.6 -51.7 L 131.6 -51.7 Q 132.8 -51 133.4 -50.1 L 133.4 -50.1 L 133.4 -50.1 Q 131.9 -48.8 131.9 -46.7 L 131.9 -46.7 L 131.9 -46.7 Q 131.9 -44 134.5 -44 L 134.5 -44 L 134.5 -44 Q 138.7 -44 141.2 -54.1 L 141.2 -54.1 L 141.2 -54.1 Q 141.9 -56.8 142.5 -59.6 L 142.5 -59.6 L 142.5 -59.6 Q 139.6 -56.1 133 -56.1 L 133 -56.1 L 133 -56.1 Q 128.5 -56.1 125.9 -58.2 L 125.9 -58.2 L 125.9 -58.2 Q 123.3 -60.4 123.3 -65.5 L 123.3 -65.5 L 123.3 -65.5 Q 123.3 -68.7 124.3 -72.4 L 124.3 -72.4 L 124.3 -72.4 Q 125.4 -76 127.6 -79 Z M 135.9 -65.4 L 135.9 -65.4 L 135.9 -65.4 Q 135.9 -61 138.2 -61 L 138.2 -61 L 138.2 -61 Q 139.7 -61 141.2 -62.7 L 141.2 -62.7 L 141.2 -62.7 Q 142.3 -64 142.8 -66 L 142.8 -66 L 146 -82.4 L 146 -82.4 Q 145.7 -82.5 145.4 -82.6 L 145.4 -82.6 L 145.4 -82.6 Q 144.8 -82.9 143.9 -82.9 L 143.9 -82.9 L 143.9 -82.9 Q 140 -82.9 137.7 -76.5 L 137.7 -76.5 L 137.7 -76.5 Q 135.9 -71.5 135.9 -65.4 Z M 187.3 -63.1 L 187.3 -63.1 L 187.3 -63.1 Q 188.9 -62 188.9 -59.6 L 188.9 -59.6 L 188.9 -59.6 Q 188.9 -57.2 187.7 -55.7 L 187.7 -55.7 L 187.7 -55.7 Q 186.5 -54.2 184.5 -53.1 L 184.5 -53.1 L 184.5 -53.1 Q 180.4 -51 176 -51 L 176 -51 L 176 -51 Q 171.6 -51 169 -52 L 169 -52 L 169 -52 Q 166.4 -52.9 164.7 -54.7 L 164.7 -54.7 L 164.7 -54.7 Q 161.3 -58.1 161.3 -64.3 L 161.3 -64.3 L 161.3 -64.3 Q 161.3 -74 166.5 -79.9 L 166.5 -79.9 L 166.5 -79.9 Q 172.2 -86.2 181.9 -86.2 L 181.9 -86.2 L 181.9 -86.2 Q 188 -86.2 191 -83.7 L 191 -83.7 L 191 -83.7 Q 193.3 -81.7 193.3 -78.6 L 193.3 -78.6 L 193.3 -78.6 Q 193.3 -67.3 173.8 -67.3 L 173.8 -67.3 L 173.8 -67.3 Q 173.6 -65.7 173.6 -64.3 L 173.6 -64.3 L 173.6 -64.3 Q 173.6 -61.3 174.9 -60.2 L 174.9 -60.2 L 174.9 -60.2 Q 176.2 -59.1 178.6 -59.1 L 178.6 -59.1 L 178.6 -59.1 Q 181 -59.1 183.6 -60.2 L 183.6 -60.2 L 183.6 -60.2 Q 186.2 -61.3 187.3 -63.1 Z M 174.3 -70.1 L 174.3 -70.1 L 174.3 -70.1 Q 178.8 -70.1 181.4 -72.9 L 181.4 -72.9 L 181.4 -72.9 Q 184.1 -75.6 184.1 -79.9 L 184.1 -79.9 L 184.1 -79.9 Q 184.1 -81.4 183.5 -82.2 L 183.5 -82.2 L 183.5 -82.2 Q 183 -83 181.9 -83 L 181.9 -83 L 181.9 -83 Q 180.8 -83 179.9 -82.5 L 179.9 -82.5 L 179.9 -82.5 Q 178.9 -82.1 178 -80.7 L 178 -80.7 L 178 -80.7 Q 175.6 -77.5 174.3 -70.1 Z M 214.6 -74.8 L 214.6 -74.8 L 214.6 -74.8 Q 215.5 -77.1 215.5 -79.2 L 215.5 -79.2 L 215.5 -79.2 Q 215.5 -83 212.4 -83 L 212.4 -83 L 212.4 -83 Q 210.8 -83 209.5 -81.5 L 209.5 -81.5 L 209.5 -81.5 Q 208.2 -80.1 208.2 -78.3 L 208.2 -78.3 L 208.2 -78.3 Q 208.2 -77 209.2 -76 L 209.2 -76 L 209.2 -76 Q 210.7 -74.6 214.5 -72.3 L 214.5 -72.3 L 214.5 -72.3 Q 218.2 -70 219.7 -68.1 L 219.7 -68.1 L 219.7 -68.1 Q 221.1 -66.2 221.1 -63.6 L 221.1 -63.6 L 221.1 -63.6 Q 221.1 -61 219.9 -58.6 L 219.9 -58.6 L 219.9 -58.6 Q 218.6 -56.3 216.4 -54.6 L 216.4 -54.6 L 216.4 -54.6 Q 211.6 -51 203.9 -51 L 203.9 -51 L 203.9 -51 Q 199.7 -51 196.5 -53.2 L 196.5 -53.2 L 196.5 -53.2 Q 193.3 -55.3 193.3 -57.8 L 193.3 -57.8 L 193.3 -57.8 Q 193.3 -60.3 195.2 -61.8 L 195.2 -61.8 L 195.2 -61.8 Q 197 -63.2 199.7 -63.2 L 199.7 -63.2 L 199.7 -63.2 Q 202.4 -63.2 204 -62.2 L 204 -62.2 L 204 -62.2 Q 203.2 -60.1 203.2 -58.7 L 203.2 -58.7 L 203.2 -58.7 Q 203.2 -54.5 206.8 -54.5 L 206.8 -54.5 L 206.8 -54.5 Q 208.3 -54.5 209.3 -55.4 L 209.3 -55.4 L 209.3 -55.4 Q 210.4 -56.4 210.4 -58.1 L 210.4 -58.1 L 210.4 -58.1 Q 210.4 -61.3 204.9 -64.8 L 204.9 -64.8 L 204.9 -64.8 Q 200.4 -67.7 199.4 -68.9 L 199.4 -68.9 L 199.4 -68.9 Q 197.6 -70.9 197.6 -73.5 L 197.6 -73.5 L 197.6 -73.5 Q 197.6 -76 198.8 -78.5 L 198.8 -78.5 L 198.8 -78.5 Q 200.1 -80.9 202.3 -82.6 L 202.3 -82.6 L 202.3 -82.6 Q 207 -86.2 215.1 -86.2 L 215.1 -86.2 L 215.1 -86.2 Q 219.3 -86.2 221.7 -84.6 L 221.7 -84.6 L 221.7 -84.6 Q 224.2 -82.9 224.2 -80.1 L 224.2 -80.1 L 224.2 -80.1 Q 224.2 -77.3 222.5 -75.7 L 222.5 -75.7 L 222.5 -75.7 Q 220.8 -74.1 217.7 -74.1 L 217.7 -74.1 L 217.7 -74.1 Q 215.6 -74.1 214.6 -74.8 Z M 265.7 -72.9 L 278.6 -74.1 L 278.6 -74.1 Q 274 -63.9 274 -52.2 L 274 -52.2 L 274 -52.2 Q 272.2 -51 269.7 -51 L 269.7 -51 L 269.7 -51 Q 267.2 -51 265.6 -52.2 L 265.6 -52.2 L 265.6 -52.2 Q 264 -53.4 263.7 -54.6 L 263.7 -54.6 L 263.7 -54.6 Q 262.1 -52.9 259.5 -52 L 259.5 -52 L 259.5 -52 Q 256.9 -51 254.1 -51 L 254.1 -51 L 254.1 -51 Q 251.4 -51 249 -51.9 L 249 -51.9 L 249 -51.9 Q 246.6 -52.8 244.7 -54.8 L 244.7 -54.8 L 244.7 -54.8 Q 240.6 -59.1 240.6 -67.4 L 240.6 -67.4 L 240.6 -67.4 Q 240.6 -80.2 247.5 -87.9 L 247.5 -87.9 L 247.5 -87.9 Q 254.5 -95.8 267 -95.8 L 267 -95.8 L 267 -95.8 Q 275.6 -95.8 278.7 -91.3 L 278.7 -91.3 L 278.7 -91.3 Q 279.7 -89.9 279.7 -88.2 L 279.7 -88.2 L 279.7 -88.2 Q 279.7 -86.5 278.9 -85.1 L 278.9 -85.1 L 278.9 -85.1 Q 278.2 -83.7 277 -82.5 L 277 -82.5 L 277 -82.5 Q 274.3 -79.9 270.9 -79.9 L 270.9 -79.9 L 270.9 -79.9 Q 269.6 -79.9 268.3 -80.4 L 268.3 -80.4 L 268.3 -80.4 Q 268.5 -82.3 268.5 -84.6 L 268.5 -84.6 L 268.5 -84.6 Q 268.5 -86.8 268.4 -87.8 L 268.4 -87.8 L 268.4 -87.8 Q 268.2 -88.8 267.8 -89.7 L 267.8 -89.7 L 267.8 -89.7 Q 267 -91.4 265.2 -91.4 L 265.2 -91.4 L 265.2 -91.4 Q 263.4 -91.4 261.3 -89.4 L 261.3 -89.4 L 261.3 -89.4 Q 259.3 -87.5 257.7 -84.3 L 257.7 -84.3 L 257.7 -84.3 Q 254.2 -77.1 254.2 -68.5 L 254.2 -68.5 L 254.2 -68.5 Q 254.2 -64.5 255.7 -61.7 L 255.7 -61.7 L 255.7 -61.7 Q 257.4 -58.6 260.3 -58.6 L 260.3 -58.6 L 260.3 -58.6 Q 261.4 -58.6 262.3 -59.1 L 262.3 -59.1 L 262.3 -59.1 Q 263.2 -59.7 263.6 -60 L 263.6 -60 L 265.7 -72.9 Z M 284.5 -54.2 L 284.5 -54.2 L 284.5 -54.2 Q 283 -55.9 282.3 -58.5 L 282.3 -58.5 L 282.3 -58.5 Q 281.7 -61.1 281.7 -65.4 L 281.7 -65.4 L 281.7 -65.4 Q 281.7 -69.7 283.1 -73.6 L 283.1 -73.6 L 283.1 -73.6 Q 284.6 -77.5 287.3 -80.3 L 287.3 -80.3 L 287.3 -80.3 Q 292.8 -86.2 301.9 -86.2 L 301.9 -86.2 L 301.9 -86.2 Q 305.1 -86.2 307.5 -85.1 L 307.5 -85.1 L 318.5 -86.2 L 313.7 -61.3 L 313.7 -61.3 Q 313.5 -60.5 313.5 -59.1 L 313.5 -59.1 L 313.5 -59.1 Q 313.5 -57.7 314.4 -56.8 L 314.4 -56.8 L 314.4 -56.8 Q 315.3 -55.9 316.5 -55.8 L 316.5 -55.8 L 316.5 -55.8 Q 315.9 -53.6 313.6 -52.3 L 313.6 -52.3 L 313.6 -52.3 Q 311.2 -51 308.6 -51 L 308.6 -51 L 308.6 -51 Q 306 -51 304.2 -52 L 304.2 -52 L 304.2 -52 Q 302.5 -53 301.9 -54.7 L 301.9 -54.7 L 301.9 -54.7 Q 300.9 -53.1 298.7 -52 L 298.7 -52 L 298.7 -52 Q 296.6 -51 293.7 -51 L 293.7 -51 L 293.7 -51 Q 290.7 -51 288.4 -51.8 L 288.4 -51.8 L 288.4 -51.8 Q 286 -52.6 284.5 -54.2 Z M 298 -80.2 L 298 -80.2 L 298 -80.2 Q 297.3 -79 296.6 -77.1 L 296.6 -77.1 L 296.6 -77.1 Q 296 -75.1 294.9 -69.9 L 294.9 -69.9 L 294.9 -69.9 Q 293.9 -64.7 293.9 -61 L 293.9 -61 L 293.9 -61 Q 293.9 -57.3 294.5 -56.2 L 294.5 -56.2 L 294.5 -56.2 Q 295 -55.1 296.1 -55.1 L 296.1 -55.1 L 296.1 -55.1 Q 298.1 -55.1 299.6 -57.1 L 299.6 -57.1 L 299.6 -57.1 Q 301.1 -59 301.7 -62.5 L 301.7 -62.5 L 305.1 -81.2 L 305.1 -81.2 Q 303.7 -82.4 302.2 -82.4 L 302.2 -82.4 L 302.2 -82.4 Q 300.6 -82.4 299.7 -81.9 L 299.7 -81.9 L 299.7 -81.9 Q 298.7 -81.4 298 -80.2 Z M 337.2 -55.8 L 337.2 -55.8 L 337.2 -55.8 Q 335.2 -51 328.9 -51 L 328.9 -51 L 328.9 -51 Q 325.7 -51 323.6 -53.3 L 323.6 -53.3 L 323.6 -53.3 Q 322 -55.1 322 -57.2 L 322 -57.2 L 322 -57.2 Q 322 -62 324.2 -72.5 L 324.2 -72.5 L 328.9 -97.1 L 341.9 -98.4 L 335.7 -66 L 335.7 -66 Q 334.6 -61.3 334.6 -59.6 L 334.6 -59.6 L 334.6 -59.6 Q 334.6 -55.9 337.2 -55.8 Z M 357.9 -55.8 L 357.9 -55.8 L 357.9 -55.8 Q 356 -51 349.6 -51 L 349.6 -51 L 349.6 -51 Q 346.4 -51 344.4 -53.3 L 344.4 -53.3 L 344.4 -53.3 Q 342.7 -55.1 342.7 -57.2 L 342.7 -57.2 L 342.7 -57.2 Q 342.7 -62 345 -72.5 L 345 -72.5 L 349.6 -97.1 L 362.6 -98.4 L 356.4 -66 L 356.4 -66 Q 355.3 -61.3 355.3 -59.6 L 355.3 -59.6 L 355.3 -59.6 Q 355.3 -55.9 357.9 -55.8 Z M 389.3 -63.1 L 389.3 -63.1 L 389.3 -63.1 Q 390.9 -62 390.9 -59.6 L 390.9 -59.6 L 390.9 -59.6 Q 390.9 -57.2 389.7 -55.7 L 389.7 -55.7 L 389.7 -55.7 Q 388.5 -54.2 386.5 -53.1 L 386.5 -53.1 L 386.5 -53.1 Q 382.4 -51 378 -51 L 378 -51 L 378 -51 Q 373.6 -51 371 -52 L 371 -52 L 371 -52 Q 368.4 -52.9 366.6 -54.7 L 366.6 -54.7 L 366.6 -54.7 Q 363.3 -58.1 363.3 -64.3 L 363.3 -64.3 L 363.3 -64.3 Q 363.3 -74 368.5 -79.9 L 368.5 -79.9 L 368.5 -79.9 Q 374.1 -86.2 383.9 -86.2 L 383.9 -86.2 L 383.9 -86.2 Q 390 -86.2 393 -83.7 L 393 -83.7 L 393 -83.7 Q 395.3 -81.7 395.3 -78.6 L 395.3 -78.6 L 395.3 -78.6 Q 395.3 -67.3 375.8 -67.3 L 375.8 -67.3 L 375.8 -67.3 Q 375.5 -65.7 375.5 -64.3 L 375.5 -64.3 L 375.5 -64.3 Q 375.5 -61.3 376.9 -60.2 L 376.9 -60.2 L 376.9 -60.2 Q 378.2 -59.1 380.6 -59.1 L 380.6 -59.1 L 380.6 -59.1 Q 383 -59.1 385.6 -60.2 L 385.6 -60.2 L 385.6 -60.2 Q 388.2 -61.3 389.3 -63.1 Z M 376.2 -70.1 L 376.2 -70.1 L 376.2 -70.1 Q 380.8 -70.1 383.4 -72.9 L 383.4 -72.9 L 383.4 -72.9 Q 386 -75.6 386 -79.9 L 386 -79.9 L 386 -79.9 Q 386 -81.4 385.5 -82.2 L 385.5 -82.2 L 385.5 -82.2 Q 385 -83 383.9 -83 L 383.9 -83 L 383.9 -83 Q 382.8 -83 381.8 -82.5 L 381.8 -82.5 L 381.8 -82.5 Q 380.9 -82.1 380 -80.7 L 380 -80.7 L 380 -80.7 Q 377.6 -77.5 376.2 -70.1 Z M 417.5 -70.3 L 417.5 -70.3 L 417.5 -70.3 Q 419.8 -74.4 419.8 -78.5 L 419.8 -78.5 L 419.8 -78.5 Q 419.8 -81.3 417.8 -81.3 L 417.8 -81.3 L 417.8 -81.3 Q 416.2 -81.3 414.6 -78.7 L 414.6 -78.7 L 414.6 -78.7 Q 413 -76 412.5 -72.6 L 412.5 -72.6 L 409.1 -52.3 L 395.9 -51 L 402.4 -84.9 L 413 -86.2 L 411.8 -79.8 L 411.8 -79.8 Q 415 -86.2 422 -86.2 L 422 -86.2 L 422 -86.2 Q 425.7 -86.2 427.7 -84.3 L 427.7 -84.3 L 427.7 -84.3 Q 429.8 -82.4 429.8 -78.4 L 429.8 -78.4 L 429.8 -78.4 Q 429.8 -74.5 427.2 -72 L 427.2 -72 L 427.2 -72 Q 424.6 -69.5 420.2 -69.5 L 420.2 -69.5 L 420.2 -69.5 Q 418.2 -69.5 417.5 -70.3 Z M 451.1 -59.5 L 451.1 -59.5 L 451.1 -59.5 Q 447.8 -56.1 441.7 -56.1 L 441.7 -56.1 L 441.7 -56.1 Q 434.1 -56.1 432.5 -61.6 L 432.5 -61.6 L 432.5 -61.6 Q 432 -63.3 432 -65.2 L 432 -65.2 L 432 -65.2 Q 432 -67 432.4 -68.9 L 432.4 -68.9 L 435.4 -84.9 L 448.4 -86.2 L 444.9 -67.6 L 444.9 -67.6 Q 444.7 -66.8 444.5 -65.9 L 444.5 -65.9 L 444.5 -65.9 Q 444.3 -65 444.3 -64 L 444.3 -64 L 444.3 -64 Q 444.3 -63.1 444.7 -62.5 L 444.7 -62.5 L 444.7 -62.5 Q 445 -61.9 445.4 -61.5 L 445.4 -61.5 L 445.4 -61.5 Q 446.2 -61 447.6 -61 L 447.6 -61 L 447.6 -61 Q 449 -61 450.1 -62.7 L 450.1 -62.7 L 450.1 -62.7 Q 451.3 -64.3 451.9 -67.2 L 451.9 -67.2 L 455.4 -84.9 L 468 -86.2 L 463.2 -61.1 L 463.2 -61.1 Q 460.9 -48.8 456 -43.9 L 456 -43.9 L 456 -43.9 Q 453.5 -41.4 450.3 -40.4 L 450.3 -40.4 L 450.3 -40.4 Q 447 -39.4 442.9 -39.4 L 442.9 -39.4 L 442.9 -39.4 Q 436.2 -39.4 432.3 -41.5 L 432.3 -41.5 L 432.3 -41.5 Q 428.5 -43.7 428.5 -47.2 L 428.5 -47.2 L 428.5 -47.2 Q 428.5 -49.8 430.5 -51.3 L 430.5 -51.3 L 430.5 -51.3 Q 432.4 -52.8 435.5 -52.8 L 435.5 -52.8 L 435.5 -52.8 Q 438.2 -52.8 440.2 -51.7 L 440.2 -51.7 L 440.2 -51.7 Q 441.5 -51 442 -50.1 L 442 -50.1 L 442 -50.1 Q 440.6 -48.8 440.6 -46.7 L 440.6 -46.7 L 440.6 -46.7 Q 440.6 -43.8 443.1 -43.8 L 443.1 -43.8 L 443.1 -43.8 Q 447.4 -43.8 449.8 -53.6 L 449.8 -53.6 L 449.8 -53.6 Q 450.5 -56.5 451.1 -59.5 Z" fill="url(#editing-gradient-gradient)"></path></g></g><style>text {
  font-size: 64px;
  font-family: Arial Black;
  dominant-baseline: central;
  text-anchor: middle;
}</style></svg>